<svg viewBox="0 0 32 32" xmlns="http://www.w3.org/2000/svg"><path d="m31.98 5.44c-.48-.02-1.22 1.01-1.88 1.93-.58.81-1.1 1.53-1.33 1.39-.18-.1-.26-.15-.3-.22-.04-.06-.04-.15-.05-.3-.01-.32-.03-.98-.42-2.47-.52-2-2.57-5.74-6.4-3.68-2.35 1.26-2.98 2.65-3.35 3.47-.39.86-.49 1.09-1.96-.11-.68-.56-1.28-1.2-1.88-1.84-.54-.58-1.09-1.16-1.7-1.69-1.26-1.1-2.95-1.97-4.63-1.65-.65.11-1.25.41-1.76.83-1.06.89-1.7 2.27-1.81 3.67-.15 2.02.62 4 1.41 5.89.16.43.35.9.19 1.32-.27.73-1.16.77-2.03.81-.25.01-.49.02-.72.05-3.71.4-3.16 5.5-1.06 7.35.37.33.64.53.83.68.37.29.48.37.61.76.09.26.26 1-.97.85-1.33-.41-2.21-.42-2.77-.15v7.67c0 1.1.9 2 2 2h28c1.1 0 2-.9 2-2v-24.56zm-9.41 9.46c.85-1.24 3.06-3.26 6.15-2.74.58.1.97.64.87 1.22s-.64.97-1.22.87c-.89-.15-1.69.04-2.35.37 1.02.26 1.96.92 2.85 2.04.36.46.28 1.12-.18 1.49-.46.36-1.12.28-1.49-.18-.69-.88-1.28-1.2-1.76-1.31-.5-.12-1.03-.05-1.67.14-.56.17-1.15-.15-1.32-.71-.04-.12-.05-.24-.04-.35-.06-.28-.02-.58.16-.84zm-9.66 5.25c-.65.24-1.12.52-1.45.92-.32.39-.6 1.01-.62 2.16 0 .6-.5 1.08-1.1 1.07s-1.08-.5-1.07-1.1c.02-1.43.37-2.53 1.01-3.37-.72.15-1.46.49-2.07 1.14-.41.44-1.1.46-1.53.05-.44-.41-.46-1.1-.05-1.53 2.2-2.34 5.25-2.06 6.71-1.57.29.1.51.3.63.56.07.09.12.18.16.29.21.56-.07 1.19-.63 1.4zm16.63 5.98c-.05.13-.15.35-.39.54-.27.21-.58.28-.84.27-.61-.03-.93-.49-1.04-.87-.12-.36-.11-.41-.26-.66-.3-.51-.77-1.19-1.42-1.8-1.29-1.23-3.11-2.11-5.49-1.31-2.51.84-3.52 2.4-3.9 3.87-.2.76-.22 1.49-.17 2.08.02.29.07.54.11.73.04.17.08.25.08.27s0 0 0 0c.22.68.07 1.19-.5 1.49s-1.27.12-1.57-.4c-.22-.4-.39-1.09-.45-1.82-.07-.78-.03-1.75.23-2.77.54-2.09 2.06-4.36 5.47-5.5 3.54-1.18 6.23.24 7.87 1.8.82.78 1.41 1.62 1.79 2.27.18.32.33.63.42.87.04.11.09.27.11.43 0 .06.03.26-.06.5z" fill="#fff" fill-rule="evenodd"/></svg>