<svg viewBox="0 0 32 32" xmlns="http://www.w3.org/2000/svg"><path d="m31.98 5.44c-.48-.02-1.22 1.01-1.88 1.93-.58.81-1.1 1.53-1.33 1.39-.18-.1-.26-.15-.3-.22-.04-.06-.04-.15-.05-.3-.01-.32-.03-.98-.42-2.47-.52-2-2.57-5.74-6.4-3.68-2.35 1.26-2.98 2.65-3.35 3.47-.39.86-.49 1.09-1.96-.11-.68-.56-1.28-1.2-1.88-1.84-.54-.58-1.09-1.16-1.7-1.69-1.26-1.1-2.95-1.97-4.63-1.65-.65.11-1.25.41-1.76.83-1.06.89-1.7 2.27-1.81 3.67-.15 2.02.62 4 1.41 5.89.16.43.35.9.19 1.32-.27.73-1.16.77-2.03.81-.25.01-.49.02-.72.05-3.71.4-3.16 5.5-1.06 7.35.37.33.64.53.83.68.37.29.48.37.61.76.09.26.26 1-.97.85-1.33-.41-2.21-.42-2.77-.15v7.67c0 1.1.9 2 2 2h28c1.1 0 2-.9 2-2v-24.56zm-19.69 16.11c-.59-.36-1.78-.68-2.78-.01-.59.4-.8.74-.88.99-.09.27-.09.58.01 1.02.13.56-.23 1.12-.79 1.25-.56.12-1.12-.23-1.24-.79-.14-.61-.22-1.35.04-2.13.26-.79.82-1.48 1.7-2.07 1.96-1.31 4.08-.61 5.02-.04.5.3.65.94.35 1.43-.3.5-.94.65-1.43.35zm9.4 9.21c-3.55 1.06-6.65-.37-8.69-5.02-.3-.7.1-1.49.83-1.71l10.54-3.27c.55-.17 1.14.03 1.32.57.83 2.42.81 7.98-4 9.43zm7.97-12.18c-.54.19-1.14-.09-1.33-.63-.15-.43-.31-.7-.53-.88-.2-.18-.56-.36-1.28-.4-1.22-.07-2.08.83-2.39 1.42-.26.51-.89.71-1.4.44s-.71-.89-.45-1.4c.52-.99 2.01-2.66 4.35-2.54 1.07.05 1.9.35 2.53.89.61.53.93 1.2 1.13 1.76.19.55-.09 1.14-.63 1.34z" fill="#fff" fill-rule="evenodd"/></svg>