<svg viewBox="0 0 16 16" xmlns="http://www.w3.org/2000/svg"><path d="m16 2.67c-.24-.01-.61.51-.94.96-.29.4-.55.76-.66.7-.09-.05-.13-.08-.15-.11s-.02-.07-.02-.15c0-.16-.01-.49-.21-1.24-.26-1-1.29-2.87-3.2-1.84-1.17.63-1.49 1.33-1.67 1.74-.2.43-.24.54-.98-.05-.34-.28-.64-.6-.94-.92-.27-.29-.54-.58-.85-.85-.65-.55-1.49-.99-2.33-.83-.33.06-.62.21-.88.42-.53.45-.85 1.14-.9 1.83-.08 1.01.31 2 .7 2.95.08.21.18.45.1.66-.13.36-.58.39-1.01.4-.12 0-.24.01-.36.02-1.85.2-1.58 2.75-.53 3.68.18.16.32.26.42.34.18.14.24.18.3.38.05.13.13.5-.48.42-.67-.2-1.11-.21-1.39-.08v3.84c0 .55.45 1 1 1h13.99c.55 0 1-.45 1-1v-12.27zm-11.14 9.12c-.64.12-1.26-.3-1.39-.94-.12-.64.3-1.26.94-1.39.64-.12 1.26.3 1.39.94.12.64-.3 1.26-.94 1.39zm9.45 1.38c-.26.23-.65.2-.89-.06-.45-.56-1.75-1.3-3.31-.73s-2.01 1.4-2.18 2.46c-.04.36-.37.59-.7.53-.36-.04-.59-.37-.53-.71.19-1.18.66-2.63 2.98-3.48 2.26-.83 4.02.3 4.69 1.09.23.26.2.65-.06.89zm-.66-3.97c-.64.12-1.26-.3-1.39-.94-.12-.64.3-1.26.94-1.39.64-.12 1.26.3 1.39.94.12.64-.3 1.26-.94 1.39z" fill="#fff" fill-rule="evenodd"/></svg>