<svg viewBox="0 0 16 16" xmlns="http://www.w3.org/2000/svg"><path d="m15.99 2.72c-.24-.01-.61.51-.94.96-.29.4-.55.76-.66.7-.09-.05-.13-.08-.15-.11s-.02-.07-.02-.15c0-.16-.01-.49-.21-1.24-.26-1-1.29-2.87-3.2-1.84-1.17.63-1.49 1.33-1.67 1.74-.2.43-.24.54-.98-.05-.34-.28-.64-.6-.94-.92-.27-.29-.54-.58-.85-.85-.64-.55-1.49-.98-2.33-.83-.33.06-.62.21-.88.42-.53.45-.85 1.14-.9 1.83-.08 1.01.31 2 .7 2.95.08.21.18.45.1.66-.13.36-.58.39-1.01.4-.12 0-.24.01-.36.02-1.85.2-1.58 2.75-.53 3.68.18.16.32.26.42.34.18.14.24.18.3.38.05.13.13.5-.48.42-.67-.2-1.11-.21-1.39-.08v3.84c0 .55.45 1 1 1h13.99c.55 0 1-.45 1-1v-12.27zm-9.85 8.05c-.29-.18-.89-.34-1.39 0-.3.2-.4.37-.44.49-.05.14-.05.29 0 .51.07.28-.12.56-.4.62s-.56-.11-.62-.39c-.07-.31-.11-.68.02-1.07.13-.4.41-.74.85-1.04.98-.65 2.04-.3 2.51-.02.25.15.33.47.17.72-.15.25-.47.32-.71.17zm4.7 4.61c-1.77.53-3.33-.18-4.35-2.51-.15-.35.05-.74.42-.86l5.27-1.63c.27-.09.57.01.66.28.42 1.21.4 3.99-2 4.72zm3.98-6.09c-.27.1-.57-.04-.66-.31-.08-.22-.15-.35-.27-.44-.1-.09-.28-.18-.64-.2-.61-.04-1.04.42-1.2.71-.13.26-.45.36-.7.22-.26-.13-.35-.44-.22-.7.26-.49 1-1.33 2.17-1.27.54.03.95.18 1.26.45s.47.6.57.88c.1.27-.04.57-.32.67z" fill="#fff" fill-rule="evenodd"/></svg>