<svg viewBox="0 0 32 32" xmlns="http://www.w3.org/2000/svg"><path d="m31.98 5.44c-.48-.02-1.22 1.01-1.88 1.93-.58.81-1.1 1.53-1.33 1.39-.18-.1-.26-.15-.3-.22-.04-.06-.04-.15-.05-.3-.01-.32-.03-.98-.42-2.47-.52-2-2.57-5.74-6.4-3.68-2.35 1.26-2.98 2.65-3.35 3.47-.39.86-.49 1.09-1.96-.11-.68-.56-1.28-1.2-1.88-1.84-.54-.58-1.09-1.16-1.7-1.69-1.26-1.1-2.95-1.97-4.63-1.65-.65.11-1.25.41-1.76.83-1.06.89-1.7 2.27-1.81 3.67-.15 2.02.62 4 1.41 5.89.16.43.35.9.19 1.32-.27.73-1.16.77-2.03.81-.25.01-.49.02-.72.05-3.71.4-3.16 5.5-1.06 7.35.37.33.64.53.83.68.37.29.48.37.61.76.09.26.26 1-.97.85-1.33-.41-2.21-.42-2.77-.15v7.67c0 1.1.9 2 2 2h28c1.1 0 2-.9 2-2v-24.56zm-22.15 18.29c-1.29.25-2.53-.59-2.78-1.88s.59-2.53 1.88-2.78 2.53.59 2.78 1.88-.59 2.53-1.88 2.78zm16.79 1.77c-.7 1.18-1.82 2.09-3.05 2.7-1.67.83-3.58 1.24-5.43 1.21l-.47-.02c-.78-.05-1.81-.07-2.42-.62-.28-.25-.46-.62-.45-.99 0-.25.09-.49.23-.69.13-.19.3-.36.51-.45.3-.13.63-.09.95-.05.33.04.66.08.99.11 1.14.12 2.32.16 3.43-.16 1.43-.4 2.71-1.35 3.71-2.43.27-.29.54-.6.91-.72.36-.11.77-.01 1.05.24s.42.65.38 1.02c-.03.3-.17.58-.32.84zm.78-6.96c-1.29.25-2.53-.59-2.78-1.88s.59-2.53 1.88-2.78 2.53.59 2.78 1.88-.59 2.53-1.88 2.78z" fill-rule="evenodd"/></svg>