<svg viewBox="0 0 16 16" xmlns="http://www.w3.org/2000/svg"><path d="m15.99 2.75c-.24-.01-.61.51-.94.96-.29.4-.55.76-.66.7-.09-.05-.13-.08-.15-.11s-.02-.07-.02-.15c0-.16-.01-.49-.21-1.24-.26-1-1.29-2.87-3.2-1.84-1.17.63-1.49 1.33-1.67 1.74-.2.43-.24.54-.98-.05-.34-.28-.64-.6-.94-.92-.27-.29-.54-.58-.85-.85-.64-.55-1.49-.99-2.33-.82-.33.06-.62.21-.88.42-.53.45-.85 1.14-.9 1.83-.08 1.01.31 2 .7 2.95.08.21.18.45.1.66-.13.36-.58.39-1.01.4-.12 0-.24.01-.36.02-1.85.2-1.58 2.75-.53 3.68.18.16.32.26.42.34.18.14.24.18.3.38.05.13.13.5-.48.42-.67-.2-1.11-.21-1.39-.08v3.84c0 .55.45 1 1 1h13.99c.55 0 1-.45 1-1v-12.28zm-11.08 9.15c-.64.12-1.26-.3-1.39-.94-.12-.64.3-1.26.94-1.39.64-.12 1.26.3 1.39.94.12.64-.3 1.26-.94 1.39zm8.39.89c-.35.59-.91 1.04-1.52 1.35-.83.41-1.79.62-2.72.61h-.24c-.39-.03-.91-.04-1.21-.32-.14-.13-.23-.31-.23-.5 0-.12.05-.24.11-.35.06-.1.15-.18.25-.23.15-.06.32-.05.48-.03s.33.04.49.06c.57.06 1.16.08 1.72-.08.71-.2 1.36-.68 1.85-1.21.13-.14.27-.3.45-.36s.39 0 .53.12c.14.13.21.32.19.51-.02.15-.08.29-.16.42zm.39-3.48c-.64.12-1.26-.3-1.39-.94-.12-.64.3-1.26.94-1.39.64-.12 1.26.3 1.39.94.12.64-.3 1.26-.94 1.39z" fill-rule="evenodd"/></svg>