<svg viewBox="0 0 16 16" xmlns="http://www.w3.org/2000/svg"><path d="m15.99 2.75c-.24-.01-.61.51-.94.96-.29.4-.55.76-.66.7-.09-.05-.13-.08-.15-.11s-.02-.07-.02-.15c0-.16-.01-.49-.21-1.24-.26-1-1.29-2.87-3.2-1.84-1.17.63-1.49 1.33-1.67 1.74-.2.43-.24.54-.98-.05-.34-.28-.64-.6-.94-.92-.27-.29-.54-.58-.85-.85-.64-.55-1.49-.99-2.33-.82-.33.06-.62.21-.88.42-.53.45-.85 1.14-.9 1.83-.08 1.01.31 2 .7 2.95.08.21.18.45.1.66-.13.36-.58.39-1.01.4-.12 0-.24.01-.36.02-1.85.2-1.58 2.75-.53 3.68.18.16.32.26.42.34.18.14.24.18.3.38.05.13.13.5-.48.42-.68-.2-1.12-.21-1.4-.07v3.84c0 .54.45.99 1 .99h14c.55 0 1-.45 1-1v-12.28zm-11.16 9.15c-.64.12-1.26-.3-1.39-.94-.12-.64.3-1.26.94-1.39.64-.12 1.26.3 1.39.94.12.64-.3 1.26-.94 1.39zm5.93 3.17v-.03c-2.41.58-3.6-.33-4.41-1.2-.23-.25-.22-.65.05-.88.25-.23.65-.22.88.05.73.79 1.57 1.23 3.18.83 1.61-.39 2.29-1.73 2.35-2.45.05-.35.36-.59.7-.54.35.05.59.36.54.71-.12 1.03-.95 2.94-3.29 3.51zm2.85-5.76c-.64.12-1.26-.3-1.39-.94-.12-.64.3-1.26.94-1.39.64-.12 1.26.3 1.39.94.12.64-.3 1.26-.94 1.39z" fill-rule="evenodd"/></svg>