<svg viewBox="0 0 16 16" xmlns="http://www.w3.org/2000/svg"><path d="m15.99 2.75c-.24-.01-.61.51-.94.96-.29.4-.55.76-.66.7-.09-.05-.13-.08-.15-.11s-.02-.07-.02-.15c0-.16-.01-.49-.21-1.24-.26-1-1.29-2.87-3.2-1.84-1.17.63-1.49 1.33-1.67 1.74-.2.43-.24.54-.98-.05-.34-.28-.64-.6-.94-.92-.27-.29-.54-.58-.85-.85-.64-.55-1.49-.99-2.33-.82-.33.06-.62.21-.88.42-.53.45-.85 1.14-.9 1.83-.08 1.01.31 2 .7 2.95.08.21.18.45.1.66-.13.36-.58.39-1.01.4-.12 0-.24.01-.36.02-1.85.2-1.58 2.75-.53 3.68.18.16.32.26.42.34.18.14.24.18.3.38.05.13.13.5-.48.42-.67-.2-1.11-.21-1.39-.08v3.84c0 .55.45 1 1 1h13.99c.55 0 1-.45 1-1v-12.28zm-4.71 4.73c.42-.62 1.53-1.63 3.07-1.37.29.05.48.32.43.61s-.32.48-.61.43c-.45-.07-.85.02-1.18.19.51.13.98.46 1.42 1.02.18.23.14.56-.09.74s-.56.14-.74-.09c-.35-.44-.64-.6-.88-.66-.25-.06-.51-.02-.84.07-.28.08-.57-.08-.66-.36-.02-.06-.02-.12-.02-.18-.03-.14 0-.29.08-.42zm-4.83 2.63c-.32.12-.56.26-.73.46-.16.19-.3.51-.31 1.08 0 .3-.25.54-.55.53-.3 0-.54-.25-.53-.55.01-.71.19-1.26.5-1.68-.36.07-.73.24-1.03.57-.21.22-.55.23-.77.02s-.23-.55-.02-.77c1.1-1.17 2.63-1.03 3.36-.79.14.05.26.15.32.28.03.04.06.09.08.15.11.28-.04.59-.32.7zm8.32 2.99c-.02.07-.08.18-.2.27-.13.1-.29.14-.42.14-.3-.01-.46-.25-.52-.43s-.06-.21-.13-.33c-.15-.25-.38-.59-.71-.9-.65-.61-1.55-1.05-2.74-.66-1.26.42-1.76 1.2-1.95 1.93-.1.38-.11.75-.09 1.04.01.15.03.27.06.37.02.09.04.13.04.14s0 0 0 0c.11.34.03.59-.25.74-.29.15-.64.06-.78-.2-.11-.2-.19-.54-.22-.91-.03-.39-.02-.88.12-1.39.27-1.05 1.03-2.18 2.74-2.75 1.77-.59 3.12.12 3.94.9.41.39.71.81.89 1.14.09.16.16.31.21.44.02.05.04.13.05.22 0 .03.01.13-.03.25z" fill-rule="evenodd"/></svg>