<svg width="359" height="369" viewBox="0 0 359 369" fill="none" xmlns="http://www.w3.org/2000/svg">
<path d="M357.735 156.069L357.428 154.845C355.101 144.777 348.429 136.448 338.349 133.088C327.752 129.732 315.863 134.12 307.333 141.091C298.804 148.061 292.603 157.36 285.365 165.622C283.328 168.165 280.538 170.456 277.493 171.018C277.402 171.034 277.302 171.05 277.21 171.058C269.813 171.692 266.246 161.7 267.274 154.263C269.598 137.994 280.455 124.83 288.47 110.625C296.481 96.4243 301.391 77.8316 292.089 64.1491C284.078 52.2721 267.278 48.3981 253.58 52.013C232.385 57.4334 215.071 92.2913 195.167 64.9223C186.12 52.5272 180.437 38.0675 171.648 25.4173C163.119 12.7671 150.194 1.14511 134.69 0.112841C128.748 -0.405284 122.801 0.886043 117.373 3.4687C106.002 8.88908 97.2138 19.7338 93.0767 31.8699C87.1303 49.4264 89.4579 68.7923 92.0445 87.385C92.5627 91.5181 93.0768 96.1653 90.7532 99.5211C85.5839 107.01 73.954 102.104 64.6477 100.812C31.0493 95.9062 24.3296 142.382 38.5421 163.557C48.6217 178.535 65.4208 186.538 80.1555 196.351C82.9972 198.16 86.0981 200.484 86.3571 203.84C87.3894 216.494 42.4201 188.089 37.5098 184.992C-2.54921 160.206 -3.58546 203.84 3.13423 232.504C14.5051 280.271 58.187 319.776 101.865 339.142C141.92 356.985 183.741 359.225 223.094 348.851C224.027 348.604 225.015 348.935 225.601 349.7L239.77 368.057C240.551 369.07 241.994 369.289 243.042 368.552L256.003 359.413C257.346 358.464 257.354 356.475 256.023 355.519L242.978 346.137C241.436 345.025 241.747 342.653 243.516 341.964C261.699 334.87 279.355 325.272 295.448 312.554C338.094 279.506 345.846 238.965 355.926 187.068C357.667 176.542 360.063 166.152 357.735 156.084V156.069ZM132.016 239.503C124.627 240.268 118.258 234.915 117.492 227.53C116.727 220.141 122.08 213.772 129.465 213.01C136.854 212.245 143.223 217.598 143.985 224.983C144.75 232.372 139.397 238.741 132.012 239.507L132.016 239.503ZM215.677 252.635C210.679 257.422 206.977 258.857 199.133 260.351C191.242 261.591 184.649 260.925 177.986 257.753C171.098 254.468 173.41 249.614 173.41 249.614C176.224 244.688 181.266 248.478 181.266 248.478C192.904 256.37 206.957 247.912 208.973 245.461C210.639 243.44 212.461 243.277 213.931 243.516C215.729 243.811 217.255 245.098 217.734 246.856C218.144 248.363 217.981 250.427 215.673 252.635H215.677ZM250.73 225.748C243.851 226.514 237.482 221.416 236.717 214.282C235.952 207.403 241.049 201.034 248.184 200.273C255.318 199.507 261.432 204.601 262.193 211.735C262.958 218.614 257.864 224.983 250.73 225.748Z" fill="url(#paint0_linear_342_7583)"/>
<path d="M132.155 239.559C124.766 240.324 118.397 234.972 117.631 227.586C116.866 220.197 122.219 213.828 129.604 213.067C136.993 212.302 143.362 217.654 144.124 225.04C144.889 232.429 139.536 238.798 132.151 239.563L132.155 239.559ZM250.869 225.801C243.99 226.566 237.621 221.469 236.856 214.334C236.091 207.455 241.188 201.086 248.322 200.325C255.457 199.56 261.571 204.657 262.332 211.788C263.097 218.667 257.999 225.036 250.869 225.801Z" fill="#0F2732"/>
<path d="M181.412 248.534C181.412 248.534 176.366 244.744 173.557 249.67C173.557 249.67 171.245 254.525 178.132 257.809C184.792 260.985 191.388 261.647 199.279 260.407C207.123 258.913 210.822 257.478 215.824 252.691C218.131 250.483 218.295 248.423 217.884 246.912C217.406 245.154 215.879 243.867 214.082 243.572C212.611 243.333 210.79 243.492 209.124 245.517C207.107 247.968 193.054 256.426 181.416 248.534H181.412Z" fill="#0F2732"/>
<defs>
<linearGradient id="paint0_linear_342_7583" x1="51.834" y1="65.576" x2="300.861" y2="314.599" gradientUnits="userSpaceOnUse">
<stop stop-color="#52B37E"/>
<stop offset="1" stop-color="#FFD63F"/>
</linearGradient>
</defs>
</svg>
